<svg xmlns="http://www.w3.org/2000/svg" xmlns:xlink="http://www.w3.org/1999/xlink" viewBox="0 0 516.07 140.5"><defs><style>.a{fill:#1c3e4c;}.b{fill:url(#a);}.c{fill:url(#b);}.d{fill:url(#c);}.e{fill:url(#d);}.f{fill:url(#e);}.g{fill:url(#f);}</style><linearGradient id="a" x1="680.96" y1="553.22" x2="680.96" y2="560.3" gradientUnits="userSpaceOnUse"><stop offset="0" stop-color="#42bb91"/><stop offset="0.99" stop-color="#20acd8"/></linearGradient><linearGradient id="b" x1="451.65" y1="586.34" x2="340.17" y2="617.09" gradientUnits="userSpaceOnUse"><stop offset="0.01" stop-color="#20acd8"/><stop offset="1" stop-color="#42bb91"/></linearGradient><linearGradient id="c" x1="451.31" y1="588.75" x2="339.84" y2="619.5" xlink:href="#b"/><linearGradient id="d" x1="433.9" y1="526.64" x2="322.43" y2="557.39" xlink:href="#b"/><linearGradient id="e" x1="466.56" y1="643.02" x2="355.08" y2="673.77" xlink:href="#b"/><linearGradient id="f" x1="449.9" y1="585.42" x2="339.61" y2="615.85" xlink:href="#b"/></defs><title>covalience_logo_horizontal_CMYK</title><path class="a" d="M521.81,608.19a67.72,67.72,0,0,1-13.6,1.21q-3.87,0-6-.13a24.76,24.76,0,0,1-4.92-.86,9.67,9.67,0,0,1-4.21-2.12,11.28,11.28,0,0,1-2.5-4,17.75,17.75,0,0,1-1.06-6.53V580.32a23.66,23.66,0,0,1,.66-6,9.66,9.66,0,0,1,2.06-4.07,14.66,14.66,0,0,1,2.9-2.51,10.45,10.45,0,0,1,4.08-1.34c1.73-.26,3.25-.44,4.56-.52s3.09-.13,5.31-.13a57.9,57.9,0,0,1,12.11,1.29v5.72a53,53,0,0,0-13.07-1.73q-6.58,0-8.56,1.56c-1.31,1-2,3.23-2,6.57v17.14c0,3.06.75,5.1,2.24,6.1S504.38,604,509,604a52.62,52.62,0,0,0,12.81-1.65Z" transform="translate(-340.78 -529.75)"/><path class="a" d="M566.34,580.75v14.54a19.66,19.66,0,0,1-1,6.58,11.06,11.06,0,0,1-2.46,4.15,9.56,9.56,0,0,1-4.26,2.25,26.29,26.29,0,0,1-5.26,1q-2.5.16-6.63.17a74.44,74.44,0,0,1-8.2-.35,19.75,19.75,0,0,1-5.88-1.68,8.1,8.1,0,0,1-4.21-4.29,19.88,19.88,0,0,1-1.27-7.79V580.75a21.31,21.31,0,0,1,1-7,12.74,12.74,0,0,1,2.46-4.41,9.21,9.21,0,0,1,4.26-2.38,25.23,25.23,0,0,1,5.22-1q2.42-.16,6.62-.17t6.63.17a25.23,25.23,0,0,1,5.22,1,9.26,9.26,0,0,1,4.26,2.38,12.74,12.74,0,0,1,2.46,4.41A21.31,21.31,0,0,1,566.34,580.75Zm-8.07,15.67v-17c0-3.86-.79-6.26-2.37-7.18s-4.62-1.39-9.13-1.39-7.54.47-9.12,1.39-2.37,3.32-2.37,7.18v17a12.87,12.87,0,0,0,.61,4.41,4.08,4.08,0,0,0,2.28,2.38,11.32,11.32,0,0,0,3.43.91c1.17.11,2.89.18,5.17.18s4-.07,5.18-.18a11.4,11.4,0,0,0,3.43-.91,4.08,4.08,0,0,0,2.28-2.38A13.12,13.12,0,0,0,558.27,596.42Z" transform="translate(-340.78 -529.75)"/><path class="a" d="M609.66,566.64l-14.83,41.9h-9.48l-15.27-41.9h8.34l11.76,35.14h.44L602,566.64Z" transform="translate(-340.78 -529.75)"/><path class="a" d="M648.79,608.54h-7.64v-4q-1,4.85-12.81,4.84-8.77,0-12.15-2.64t-3.38-10.69q0-7,3.16-9.65t12.2-2.64h12.72v-6.66q0-3.47-2.15-4.68t-8.12-1.21a115.53,115.53,0,0,0-14.56,1v-5.71q8.69-.78,15.7-.78,10.71,0,13.87,2.55t3.16,10.6Zm-7.9-8.49V588.63h-12.2q-5.43,0-6.8,1.39t-1.36,6.31c0,2.94.48,5,1.45,6.19s3,1.78,6.1,1.78h1.58q2.28,0,3.81-.09a25.11,25.11,0,0,0,3.47-.48,6.08,6.08,0,0,0,2.94-1.3A3,3,0,0,0,640.89,600.05Z" transform="translate(-340.78 -529.75)"/><path class="a" d="M666.35,608.54h-7.9V552h7.9Z" transform="translate(-340.78 -529.75)"/><path class="a" d="M684.91,608.54H677v-41.9h7.9Z" transform="translate(-340.78 -529.75)"/><path class="a" d="M730.5,589.32H702v6.32c0,2.94,1,5,3.16,6.27s5.23,1.86,9.39,1.86a60,60,0,0,0,14.3-2.07v6a71.91,71.91,0,0,1-15.36,1.73Q694,609.4,694,596.59V580.06q0-7.71,4.48-11t14.3-3.29c6.15,0,10.63,1.05,13.47,3.16s4.26,5.81,4.26,11.12Zm-7.9-5.11v-6.57q0-3.81-2.37-5.24t-7.9-1.43q-5.26,0-7.8,1.38T702,577.64v6.57Z" transform="translate(-340.78 -529.75)"/><path class="a" d="M774.83,608.54h-7.9v-30.3a11,11,0,0,0-.26-2.59,6.12,6.12,0,0,0-1.1-2.13,5.28,5.28,0,0,0-2.81-1.64,18.67,18.67,0,0,0-5-.56q-6.93,0-9.3,1.47t-2.37,5.45v30.3h-7.9v-41.9h7.9v5.11q1.23-6,14-6,8.43,0,11.59,3t3.16,9Z" transform="translate(-340.78 -529.75)"/><path class="a" d="M814.94,608.19a67.65,67.65,0,0,1-13.6,1.21c-2.57,0-4.58,0-6-.13a24.68,24.68,0,0,1-4.91-.86,9.71,9.71,0,0,1-4.22-2.12,11.42,11.42,0,0,1-2.5-4,17.76,17.76,0,0,1-1.05-6.53V580.32a23.66,23.66,0,0,1,.66-6,9.66,9.66,0,0,1,2.06-4.07,14.62,14.62,0,0,1,2.89-2.51,10.5,10.5,0,0,1,4.09-1.34c1.72-.26,3.24-.44,4.56-.52s3.08-.13,5.31-.13a58,58,0,0,1,12.11,1.29v5.72a53,53,0,0,0-13.08-1.73c-4.38,0-7.24.52-8.55,1.56s-2,3.23-2,6.57v17.14c0,3.06.75,5.1,2.24,6.1s4.55,1.52,9.17,1.52a52.55,52.55,0,0,0,12.81-1.65Z" transform="translate(-340.78 -529.75)"/><path class="a" d="M856.85,589.32H828.33v6.32c0,2.94,1,5,3.16,6.27s5.23,1.86,9.39,1.86a60,60,0,0,0,14.3-2.07v6a72,72,0,0,1-15.36,1.73q-19.49,0-19.48-12.81V580.06q0-7.71,4.48-11t14.3-3.29q9.21,0,13.47,3.16t4.26,11.12Zm-7.9-5.11v-6.57q0-3.81-2.37-5.24t-7.9-1.43q-5.26,0-7.81,1.38c-1.7.93-2.54,2.69-2.54,5.29v6.57Z" transform="translate(-340.78 -529.75)"/><path class="b" d="M676.91,557A4.05,4.05,0,1,1,681,561,4.05,4.05,0,0,1,676.91,557Z" transform="translate(-340.78 -529.75)"/><path class="c" d="M343.3,620.88c7.66,12.57,25.56,10.53,29.45-3.35,3.55-12.6-8.05-26.14-22.39-20.7-11.44,5.82-11,17.57-7.06,24" transform="translate(-340.78 -529.75)"/><path class="d" d="M402.8,599.57c5.08,10,18.11,17.36,26.17,5.54,7.21-10.58,7.49-11,12.44-11.21,2.16-.1,8.72-.38,13.11,9.57,3.25,7.39,4.21,8.36,5.79,8.95,5.56-3.17-4.62-35.75-9.09-37.51-1.4-.55-1.64,1.24-2.08,4.49-1,7.2-8.57,6.1-8.89,6.06-5.78-.9-9-1.39-17-7.42-3.75-2.81-7.18-4.21-10.51-4.28a17.33,17.33,0,0,0-2.69.22c-14,4.84-9.84,20.49-7.26,25.59" transform="translate(-340.78 -529.75)"/><path class="e" d="M376.2,542.11c8.93,9,26.15,9.87,25.94,1.34-.16-6.72-13.32-15.13-24.5-13.49-7.94,1.93-5.1,8.48-1.44,12.15" transform="translate(-340.78 -529.75)"/><path class="f" d="M414.38,659.13c.17,6.2,3,16.29,10.46,8,9-10,9.39-27.18.55-27-.3,0-.71.08-1,.11-6.85,1.89-10.22,10.95-10,18.93" transform="translate(-340.78 -529.75)"/><path class="g" d="M397,648.3c-3,0-9.27-1.93-13.31-9.18-1.88-3.39-4.45-11.63-.69-18.55l.3-.55.27-.51h0c.94-2,3.93-9.21,1.39-17.18-2-6.22-6.8-11.26-14.35-15A21.61,21.61,0,0,1,360,579.63c0-.06-4.81-7.07-2.84-14.11,1.16-4.15,4.45-7.45,9.77-9.81a19.83,19.83,0,0,1,5.48-.73c4.27,0,8.5,1.23,12.6,2.41s8.47,2.45,12.87,2.45a21.72,21.72,0,0,0,3.55-.28c4.9-.81,13.1-2.17,14.38-9.73a5.83,5.83,0,0,1,1.89-3.62,4.59,4.59,0,0,1,2.65-.75c3.82,0,9.56,3.61,14.62,9.2,5.73,6.33,9,13.25,8.52,18.05-.3,3.07-2.12,3.75-2.67,3.88a6.74,6.74,0,0,1-1.71.22c-2.95,0-6.76-1.93-11.63-5.89a25.36,25.36,0,0,0-15.68-5.85,23.19,23.19,0,0,0-4.3.41,20,20,0,0,0-15,12.19c-.17.45-.37.88-.56,1.29a32.45,32.45,0,0,0,10.12,34.48l-.26.09.94.5c.57.3,1.06.58,1.52.87,5.64,3.54,9.06,5.12,14.39,5.12a31.83,31.83,0,0,0,3.62-.23,19,19,0,0,0,13.88-8.48c4.91-7.4,4.91-7.4,6.21-8a5.17,5.17,0,0,1,2.26-.54c1.88,0,3.71,1.13,5.29,3.26,3.25,4.41,5.38,13.63,2.36,23.46-1.51,4.94-4.32,8.88-7,9.82a4.39,4.39,0,0,1-1.44.26h0c-2.74,0-4.65-3-6.16-6a12.21,12.21,0,0,0-10.89-6.79A16,16,0,0,0,424,627c-8.75,1.66-13.36,9.44-14.57,11.78-4.32,8.41-9,9.07-11.55,9.43A8.61,8.61,0,0,1,397,648.3Z" transform="translate(-340.78 -529.75)"/></svg>